<svg width="127" height="20" viewBox="0 0 127 20" fill="none" xmlns="http://www.w3.org/2000/svg">
<path fill-rule="evenodd" clip-rule="evenodd" d="M3.00001 8.03101V4.44522L6.16451 7.60972L7.57873 6.1955L4.41423 3.03101H8.00001V1.03101H1.00001V2.03101V8.03101H3.00001ZM13.8356 7.60963L12.4214 6.19541L15.5858 3.03101L12 3.03101V1.03101L18 1.03101L19 1.03101V8.03101H17V4.44522L13.8356 7.60963ZM12.4214 13.8666L13.8356 12.4524L17 15.6168V12.031L19 12.031V19.031H18L12 19.031V17.031L15.5858 17.031L12.4214 13.8666ZM6.1645 12.4523L7.57872 13.8665L4.41421 17.031H8V19.031H2H1V12.031H3V15.6168L6.1645 12.4523Z" fill="black"/>
<path d="M6.71751 10.3846C6.52224 10.1893 6.52224 9.87271 6.71751 9.67745L9.64644 6.74852C9.84171 6.55325 10.1583 6.55325 10.3535 6.74852L13.2825 9.67745C13.4777 9.87271 13.4777 10.1893 13.2825 10.3846L10.3536 13.3135C10.1583 13.5088 9.84171 13.5088 9.64644 13.3135L6.71751 10.3846Z" fill="#2667FF"/>
<path d="M124.334 19H122.015V8.94867H119.647V7H122.015V3H124.334V7H126.702V8.94867H124.334V19Z" fill="black"/>
<path d="M109.8 19H107.481L107.481 6.64538H109.578L109.825 8.49538C110.589 7.11405 112.119 6.30005 113.821 6.30005C117.003 6.30005 118.458 8.24872 118.458 11.332V19H116.139V11.85C116.139 9.40805 115.005 8.42138 113.229 8.42138C111.058 8.42138 109.8 9.97538 109.8 12.3187V19Z" fill="black"/>
<path d="M102.428 7H104.928V19H102.428L102.428 7Z" fill="black"/>
<path d="M102.235 3.82844C101.845 3.43792 101.845 2.80476 102.235 2.41423L102.942 1.70712C103.333 1.3166 103.966 1.3166 104.356 1.70712L105.063 2.41423C105.454 2.80476 105.454 3.43792 105.063 3.82844L104.356 4.53555C103.966 4.92608 103.333 4.92608 102.942 4.53555L102.235 3.82844Z" fill="black"/>
<path d="M88.1544 12.6394C88.1544 8.91472 90.8184 6.30005 94.4444 6.30005C98.0458 6.30005 100.71 8.91472 100.71 12.6394C100.71 16.3641 98.0458 18.9787 94.4444 18.9787C90.8184 18.9787 88.1544 16.3641 88.1544 12.6394ZM90.4977 12.6394C90.4977 15.1554 92.1011 16.9067 94.4444 16.9067C96.7631 16.9067 98.3911 15.1554 98.3911 12.6394C98.3911 10.1234 96.7631 8.37205 94.4444 8.37205C92.1011 8.37205 90.4977 10.1234 90.4977 12.6394Z" fill="black"/>
<path d="M82.1472 12.47H77.6332V19H75.2158V1H82.1472C85.6498 1 87.8945 3.294 87.8945 6.72267C87.8945 10.0527 85.6252 12.47 82.1472 12.47ZM81.7278 3.17067H77.6332V10.2993H81.6292C84.0218 10.2993 85.3538 8.89334 85.3538 6.698C85.3538 4.45334 83.9972 3.17067 81.7278 3.17067Z" fill="black"/>
<path d="M59.2175 19.062L55.2709 7H57.6635L59.6615 13.2653C59.9329 14.1533 60.1795 15.066 60.4015 16.1267C60.5989 15.066 60.9195 14.0547 61.1909 13.2653L63.2135 7H65.5815L67.5795 13.2653C67.7769 13.8573 68.1715 15.2633 68.3689 16.1267C68.5662 15.1647 68.7882 14.326 69.1335 13.2653L71.1562 7H73.5735L69.4542 19.062H67.2589L65.1622 12.5993C64.7675 11.3907 64.5209 10.4533 64.3975 9.78733C64.2742 10.3793 64.0522 11.1687 63.6082 12.624L61.5115 19.062H59.2175Z" fill="black"/>
<path d="M42.7996 12.6394C42.7996 8.91472 45.4636 6.30005 49.0896 6.30005C52.6909 6.30005 55.3549 8.91472 55.3549 12.6394C55.3549 16.3641 52.6909 18.9787 49.0896 18.9787C45.4636 18.9787 42.7996 16.3641 42.7996 12.6394ZM45.1429 12.6394C45.1429 15.1554 46.7462 16.9067 49.0896 16.9067C51.4082 16.9067 53.0362 15.1554 53.0362 12.6394C53.0362 10.1234 51.4082 8.37205 49.0896 8.37205C46.7462 8.37205 45.1429 10.1234 45.1429 12.6394Z" fill="black"/>
<path d="M40.9157 19H38.597V1H40.9157V19Z" fill="black"/>
<path d="M35.4227 11.2613H28.4173V19H26V1H36.7547V3.22H28.4173V9H35.4227V11.2613Z" fill="black"/>
</svg>
