<svg xmlns="http://www.w3.org/2000/svg" id="a38a2d18-fc25-4daf-a7c7-3fb40068bb7e" data-name="Layer 1" viewBox="0 0 393 96"><g><g><g><circle cx="269.02" cy="32.84" r="2.74" transform="translate(15.11 127.61) rotate(-27.43)" fill="#575da9"></circle><path d="M277.14,33.5a2.22,2.22,0,1,0-3-1A2.22,2.22,0,0,0,277.14,33.5Z" fill="#575da9"></path><path d="M284.64,33.87A2.72,2.72,0,1,0,281,32.59,2.72,2.72,0,0,0,284.64,33.87Z" fill="#4661ad"></path><path d="M263.74,30.18A2.78,2.78,0,1,0,260,28.87,2.78,2.78,0,0,0,263.74,30.18Z" fill="#43bfef"></path><circle cx="269.5" cy="25.54" r="2.95" transform="translate(2.14 67.96) rotate(-14.43)" fill="#477ec1"></circle><path d="M277.8,26.74a2.53,2.53,0,1,0-3.37-1.18A2.53,2.53,0,0,0,277.8,26.74Z" fill="#477ec1"></path><path d="M285,26.56a2.32,2.32,0,0,0-2-4.18,2.32,2.32,0,1,0,2,4.18Z" fill="#477ec1"></path><path d="M292.16,27.59a2.24,2.24,0,1,0-3-1.05A2.23,2.23,0,0,0,292.16,27.59Z" fill="#575da9"></path><path d="M299.22,30a2.47,2.47,0,1,0-3.3-1.16A2.48,2.48,0,0,0,299.22,30Z" fill="#6dc8bd"></path><path d="M239.93,38.24A2.61,2.61,0,1,0,236.45,37,2.62,2.62,0,0,0,239.93,38.24Z" fill="#43bfef"></path><path d="M245.24,33.37A2.86,2.86,0,1,0,241.43,32,2.84,2.84,0,0,0,245.24,33.37Z" fill="#575da9"></path><path d="M251.1,29.05a2.92,2.92,0,1,0-3.89-1.37A2.91,2.91,0,0,0,251.1,29.05Z" fill="#477ec1"></path><path d="M257.35,25.27A2.69,2.69,0,1,0,253.77,24,2.68,2.68,0,0,0,257.35,25.27Z" fill="#575da9"></path><path d="M264.39,23.14a3.34,3.34,0,1,0-4.46-1.56A3.33,3.33,0,0,0,264.39,23.14Z" fill="#575da9"></path><circle cx="270" cy="18.32" r="2.74" transform="translate(179.87 273.5) rotate(-74.43)" fill="#6dc8bd"></circle><circle cx="284.52" cy="17.53" r="2.61" fill="#575da9"></circle><path d="M292.82,20.82a2.51,2.51,0,1,0-3.35-1.17A2.51,2.51,0,0,0,292.82,20.82Z" fill="#43bfef"></path><path d="M299.77,22.65a2.35,2.35,0,1,0-3.14-1.11A2.36,2.36,0,0,0,299.77,22.65Z" fill="#477ec1"></path><path d="M244.77,24.2a2.3,2.3,0,1,0-3.07-1.07A2.3,2.3,0,0,0,244.77,24.2Z" fill="#575da9"></path><path d="M250.8,20.05a2,2,0,1,0-2.68-.94A2,2,0,0,0,250.8,20.05Z" fill="#6dc8bd"></path><path d="M257.16,32.61a2,2,0,1,0-2.68-.95A2,2,0,0,0,257.16,32.61Z" fill="#6dc8bd"></path><path d="M306.48,24.66a2,2,0,1,0-2.68-.94A2,2,0,0,0,306.48,24.66Z" fill="#6dc8bd"></path><path d="M235.35,42.94a2,2,0,1,0-2.68-.94A2,2,0,0,0,235.35,42.94Z" fill="#575da9"></path><path d="M257.35,16.85a2,2,0,1,0-2.6-.92A1.95,1.95,0,0,0,257.35,16.85Z" fill="#43bfef"></path><path d="M264.22,14.43a1.9,1.9,0,1,0-2.53-.89A1.89,1.89,0,0,0,264.22,14.43Z" fill="#477ec1"></path><path d="M271.2,12.6a1.59,1.59,0,1,0-2.11-.75A1.59,1.59,0,0,0,271.2,12.6Z" fill="#575da9"></path><path d="M278.5,12a1.7,1.7,0,1,0-2.26-.8A1.7,1.7,0,0,0,278.5,12Z" fill="#477ec1"></path><path d="M286.17,12.92a2.58,2.58,0,1,0-3.45-1.21A2.58,2.58,0,0,0,286.17,12.92Z" fill="#43bfef"></path><path d="M293.3,13.69a2.36,2.36,0,1,0-3.15-1.11A2.36,2.36,0,0,0,293.3,13.69Z" fill="#575da9"></path><path d="M300.36,15.5a2.36,2.36,0,1,0-3.15-1.11A2.36,2.36,0,0,0,300.36,15.5Z" fill="#4661ad"></path><path d="M313.65,21.59a2.45,2.45,0,1,0-3.27-1.15A2.45,2.45,0,0,0,313.65,21.59Z" fill="#43bfef"></path><path d="M319.77,25.93a2.7,2.7,0,1,0-3.6-1.27A2.69,2.69,0,0,0,319.77,25.93Z" fill="#477ec1"></path></g><g><circle cx="361.47" cy="13.95" r="2.22" transform="translate(213.47 344.03) rotate(-68.06)" fill="#575da9"></circle><circle cx="348.12" cy="19.64" r="2.74" transform="translate(24.06 148.31) rotate(-24.89)" fill="#575da9"></circle><path d="M340,18.62A2.22,2.22,0,1,0,343,19.8,2.23,2.23,0,0,0,340,18.62Z" fill="#575da9"></path><path d="M332.56,17.92a2.72,2.72,0,1,0,3.57,1.44A2.73,2.73,0,0,0,332.56,17.92Z" fill="#4661ad"></path><path d="M353.28,22.53A2.78,2.78,0,1,0,356.92,24,2.78,2.78,0,0,0,353.28,22.53Z" fill="#43bfef"></path><circle cx="347.31" cy="26.92" r="2.95" transform="translate(1.9 72.11) rotate(-11.89)" fill="#477ec1"></circle><path d="M339.08,25.34a2.53,2.53,0,1,0,3.31,1.34A2.53,2.53,0,0,0,339.08,25.34Z" fill="#477ec1"></path><path d="M331.88,25.2a2.32,2.32,0,1,0,3,1.23A2.33,2.33,0,0,0,331.88,25.2Z" fill="#477ec1"></path><path d="M324.77,23.86A2.24,2.24,0,1,0,327.71,25,2.24,2.24,0,0,0,324.77,23.86Z" fill="#575da9"></path><path d="M377.43,15.54a2.6,2.6,0,1,0,3.42,1.37A2.6,2.6,0,0,0,377.43,15.54Z" fill="#43bfef"></path><path d="M371.9,20.17a2.85,2.85,0,1,0,3.75,1.51A2.86,2.86,0,0,0,371.9,20.17Z" fill="#575da9"></path><path d="M365.86,24.22a2.92,2.92,0,1,0,3.82,1.54A2.92,2.92,0,0,0,365.86,24.22Z" fill="#477ec1"></path><path d="M359.45,27.72A2.68,2.68,0,1,0,363,29.14,2.69,2.69,0,0,0,359.45,27.72Z" fill="#575da9"></path><path d="M352.31,29.53a3.34,3.34,0,1,0,4.39,1.77A3.36,3.36,0,0,0,352.31,29.53Z" fill="#575da9"></path><circle cx="346.49" cy="34.1" r="2.74" transform="translate(206.34 352.81) rotate(-71.88)" fill="#6dc8bd"></circle><circle cx="331.95" cy="34.25" r="2.61" fill="#575da9"></circle><path d="M323.81,30.59a2.51,2.51,0,1,0,3.29,1.32A2.51,2.51,0,0,0,323.81,30.59Z" fill="#43bfef"></path><path d="M317,28.46A2.35,2.35,0,1,0,320,29.7,2.35,2.35,0,0,0,317,28.46Z" fill="#477ec1"></path><path d="M372,29.34a2.3,2.3,0,1,0,3,1.22A2.31,2.31,0,0,0,372,29.34Z" fill="#575da9"></path><path d="M365.75,33.23a2,2,0,1,0,2.64,1.06A2,2,0,0,0,365.75,33.23Z" fill="#6dc8bd"></path><path d="M360,20.4a2,2,0,1,0,2.64,1.06A2,2,0,0,0,360,20.4Z" fill="#6dc8bd"></path><path d="M310.34,26.15A2,2,0,1,0,313,27.21,2,2,0,0,0,310.34,26.15Z" fill="#6dc8bd"></path><path d="M382.2,11a2,2,0,1,0,2.64,1.06A2,2,0,0,0,382.2,11Z" fill="#6dc8bd"></path><path d="M359.07,36.14a1.95,1.95,0,1,0,2.56,1A1.94,1.94,0,0,0,359.07,36.14Z" fill="#43bfef"></path><path d="M352.1,38.25a1.89,1.89,0,1,0,2.49,1A1.9,1.9,0,0,0,352.1,38.25Z" fill="#477ec1"></path><path d="M345,39.77a1.58,1.58,0,1,0,2.08.83A1.57,1.57,0,0,0,345,39.77Z" fill="#575da9"></path><path d="M337.72,40.05A1.7,1.7,0,1,0,340,41,1.71,1.71,0,0,0,337.72,40.05Z" fill="#477ec1"></path><path d="M330.1,38.78a2.59,2.59,0,1,0,3.39,1.37A2.58,2.58,0,0,0,330.1,38.78Z" fill="#43bfef"></path><path d="M323,37.7a2.35,2.35,0,1,0,3.09,1.24A2.35,2.35,0,0,0,323,37.7Z" fill="#575da9"></path><path d="M303,28.9a2.45,2.45,0,1,0,3.21,1.29A2.45,2.45,0,0,0,303,28.9Z" fill="#43bfef"></path></g></g><g><path d="M8,88V45.35c0-5.73,3-7.53,7.31-7.53H47.93v7.53H21.05c-2.87,0-3.59.72-3.59,3.58v10H39.68v7.52H17.46V88Z" fill="#231f20"></path><path d="M52,37.82h8.39V88H52Z" fill="#231f20"></path><path d="M106.2,68.5C106.2,83.7,99.6,88,86,88S65.77,83.7,65.77,68.5c0-15,6.59-19.35,20.21-19.35S106.2,53.45,106.2,68.5ZM86,81.55c8.6,0,11.54-3.73,11.54-13S94.58,55.6,86,55.6,74.44,59.19,74.44,68.5,77.38,81.55,86,81.55Z" fill="#231f20"></path><path d="M123.39,77.68c.15.5.36,1.15.72,1.15s.58-.58.72-1.08l7-25.09c1-3.51,4.09-3.51,5.52-3.51s4.52,0,5.52,3.51l7,25.09c.15.5.36,1.08.72,1.08s.57-.58.72-1.15l7.24-28h8l-9,33.19c-1,3.65-2.93,5.16-6.52,5.16s-5.73-1.51-6.52-4.23L137.87,60c-.07-.28-.21-1.22-.57-1.22s-.5.94-.57,1.22l-6.6,23.8c-.79,2.72-2.94,4.23-6.52,4.23s-5.52-1.51-6.52-5.16l-9-33.19h8Z" fill="#231f20"></path><path d="M172,88V43.78c0-4.59,1.86-6,6.16-6h21.08c9.53,0,13,4.38,13,14.7,0,11.18-3.44,15-13,15H175.87V88Zm27.24-23.94c7.67,0,8.82-3.94,8.82-11.54,0-7.17-1.44-11.26-8.82-11.26h-20.5c-2.87,0-2.87,1.37-2.87,3.09V64.07Z" fill="#231f20"></path><path d="M253.05,68.5c0,13.62-5.16,19.5-18.78,19.5s-18.78-5.88-18.78-19.5,5.16-19.35,18.78-19.35S253.05,54.88,253.05,68.5ZM234.27,84.63c10.76,0,14.91-3.94,14.91-16.13s-4.15-16-14.91-16-14.91,3.8-14.91,16S223.52,84.63,234.27,84.63Z" fill="#231f20"></path><path d="M260,50h3.72V88H260Z" fill="#231f20"></path><path d="M271.89,56c0-3.65,1.15-6,5.16-6H291c7.88,0,11,4.23,11,11.68V88h-3.73V61.68c0-4.58-1.51-8.31-7.24-8.31H277.92c-1.44,0-2.3.29-2.3,2.72V88h-3.73Z" fill="#231f20"></path><path d="M321.89,88c-10.32,0-10.32-6-10.32-12V53.34h-5.95V50h5.95V37.79h3.73V50h10.18v3.37H315.3V77c0,6,1.57,7.59,7.45,7.59h2.73V88Z" fill="#231f20"></path></g></g></svg>